<svg height="44" fill="none" xmlns="http://www.w3.org/2000/svg" width="54" viewBox="0 0 54 44">
<g clip-path="url(#clip0_23_4)">
<path d="M22.737 39.5492C13.3432 39.5492 5.73584 31.8582 5.73584 22.361C5.73584 12.8637 13.3432 5.17273 22.737 5.17273C26.656 5.17273 30.5173 6.5711 33.5717 9.0765C35.4735 10.6497 37.0296 12.689 38.0669 14.903C38.2975 15.3109 38.0669 15.8353 37.6635 16.0683C37.2601 16.3014 36.7414 16.0683 36.5109 15.6605C35.5312 13.6795 34.148 11.8732 32.4767 10.4166C29.768 8.14426 26.3102 6.86242 22.737 6.86242C14.3229 6.86242 7.46478 13.796 7.46478 22.3027C7.46478 30.8095 14.3229 37.8013 22.737 37.8013C28.6731 37.8013 34.0904 34.3054 36.6262 28.8284C36.799 28.3623 37.3177 28.1875 37.7788 28.4206C38.2398 28.5954 38.4127 29.1198 38.1822 29.5859C35.4159 35.6455 29.3646 39.5492 22.737 39.5492Z" fill="#65403A"/>
<path d="M9.88537 33.4896C4.81383 33.4896 1.24069 32.0913 0.260964 29.4693C-0.776398 26.6143 1.29833 22.9436 6.13935 19.2729C6.54276 18.9816 7.06144 19.0398 7.3496 19.4477C7.63776 19.8556 7.58012 20.3799 7.17671 20.6713C3.14252 23.7593 1.18306 26.8474 1.87464 28.8867C3.02726 32.033 10.9804 33.14 22.3913 29.5859C22.8524 29.4693 23.3134 29.7024 23.4863 30.1685C23.6016 30.6346 23.3711 31.1008 22.91 31.2755C18.069 32.7904 13.5738 33.4896 9.88537 33.4896Z" fill="#65403A"/>
<path d="M44.4065 14.0873C44.0608 14.0873 43.715 13.8542 43.5997 13.5046C42.8505 11.4653 39.3926 10.4166 34.3211 10.6496H32.9956C32.5345 10.6496 32.1311 10.2418 32.1311 9.77566C32.1311 9.30953 32.5345 8.90168 32.9956 8.90168H34.2635C40.2571 8.61035 44.176 10.0087 45.2134 12.922C45.3863 13.3881 45.1557 13.8542 44.6947 14.029C44.5794 14.0873 44.5218 14.0873 44.4065 14.0873Z" fill="#65403A"/>
<path d="M22.7371 31.1591C22.6219 31.1591 22.5066 31.1591 22.3914 31.1008L18.1843 29.1198C17.7232 28.945 17.5503 28.4206 17.7809 27.9545C18.0114 27.4884 18.4724 27.3136 18.9335 27.5466L23.1406 29.5277C23.6016 29.7024 23.7745 30.2268 23.544 30.693C23.3711 30.9843 23.0829 31.1591 22.7371 31.1591Z" fill="#65403A"/>
<path d="M20.7776 35.4125C20.6624 35.4125 20.5471 35.4125 20.4318 35.3542C19.9708 35.1794 19.7979 34.6551 20.0284 34.1889L21.9879 29.9356C22.2184 29.4694 22.6795 29.2946 23.1405 29.5277C23.6016 29.7025 23.7745 30.2269 23.5439 30.693L21.5845 34.8881C21.4116 35.2377 21.1234 35.4125 20.7776 35.4125Z" fill="#65403A"/>
<path d="M27.6935 29.3528C27.5782 29.3528 27.463 29.3528 27.3477 29.2945L20.432 26.0899C20.0862 25.9151 19.8556 25.5073 19.9709 25.0994C20.0862 24.6916 20.3743 24.4002 20.7777 24.4002L27.6358 24.1672L30.114 22.6523L26.2527 18.4572C26.0798 18.2824 26.0222 18.0493 26.0222 17.8163C26.0222 17.5832 26.1374 17.3501 26.3103 17.1753C26.4256 17.1171 27.2901 16.3596 29.019 16.3596C31.1514 16.3596 33.6295 17.4667 36.3958 19.5642L42.2742 16.8257C42.62 16.6509 43.1386 16.5927 43.715 16.5927C44.8099 16.5927 46.827 16.884 47.3457 18.1076C47.5762 18.632 47.8068 19.5642 46.7694 20.4382C46.2507 20.846 45.4439 21.2539 44.4642 21.72L28.0393 29.2945C27.924 29.3528 27.8087 29.3528 27.6935 29.3528ZM24.4661 26.0317L27.6935 27.4883L43.6573 20.1469C44.5218 19.739 45.6168 19.2729 45.732 18.9816C45.732 18.9816 45.732 18.9233 45.6744 18.865C45.5591 18.6902 44.6947 18.3989 43.5997 18.3989C43.1963 18.3989 42.9657 18.4572 42.8505 18.5154L36.5111 21.4287C36.2229 21.5452 35.8771 21.5452 35.589 21.3122C32.3616 18.6902 30.1716 18.1658 28.9037 18.1658C28.6732 18.1658 28.4427 18.1658 28.2122 18.2241L31.9582 22.2444C32.1311 22.4192 32.2463 22.7105 32.1887 22.9436C32.1311 23.1767 32.0158 23.4097 31.7853 23.5845L28.2122 25.7986C28.0969 25.8569 27.924 25.9151 27.8087 25.9151L24.4661 26.0317Z" fill="#65403A"/>


</g>
<defs>
<clipPath id="clip0_23_4">
<rect width="172" height="44" fill="white"/>
</clipPath>
</defs>
</svg>